<?xml version="1.0" encoding="UTF-8" standalone="no"?>
<!-- Created with Inkscape (http://www.inkscape.org/) -->

<svg
   width="512"
   height="512"
   viewBox="0 0 512 512"
   version="1.1"
   id="svg1"
   inkscape:version="1.3.1 (91b66b0783, 2023-11-16)"
   sodipodi:docname="DtgA-Icon-vector.svg"
   inkscape:export-filename="Logo\DtgA-Icon-192.png"
   inkscape:export-xdpi="36"
   inkscape:export-ydpi="36"
   xmlns:inkscape="http://www.inkscape.org/namespaces/inkscape"
   xmlns:sodipodi="http://sodipodi.sourceforge.net/DTD/sodipodi-0.dtd"
   xmlns:xlink="http://www.w3.org/1999/xlink"
   xmlns="http://www.w3.org/2000/svg"
   xmlns:svg="http://www.w3.org/2000/svg">
  <sodipodi:namedview
     id="namedview1"
     pagecolor="#505050"
     bordercolor="#eeeeee"
     borderopacity="1"
     inkscape:showpageshadow="0"
     inkscape:pageopacity="0"
     inkscape:pagecheckerboard="0"
     inkscape:deskcolor="#505050"
     inkscape:document-units="px"
     inkscape:zoom="1.2216797"
     inkscape:cx="224.28137"
     inkscape:cy="265.6179"
     inkscape:window-width="1920"
     inkscape:window-height="1017"
     inkscape:window-x="-8"
     inkscape:window-y="-8"
     inkscape:window-maximized="1"
     inkscape:current-layer="layer1" />
  <defs
     id="defs1">
    <linearGradient
       id="linearGradient3"
       inkscape:collect="always">
      <stop
         style="stop-color:#85ffe1;stop-opacity:0.41;"
         offset="0"
         id="stop3" />
      <stop
         style="stop-color:#9adbcb;stop-opacity:0.21960784;"
         offset="0.67397261"
         id="stop5" />
      <stop
         style="stop-color:#b3b3b3;stop-opacity:0;"
         offset="1"
         id="stop4" />
    </linearGradient>
    <rect
       x="75.410255"
       y="181.75806"
       width="216.56279"
       height="268.7699"
       id="rect2" />
    <rect
       x="112.14859"
       y="431.19196"
       width="90.879028"
       height="116.01578"
       id="rect4" />
    <rect
       x="342.24655"
       y="409.92242"
       width="148.88692"
       height="139.21893"
       id="rect5" />
    <radialGradient
       inkscape:collect="always"
       xlink:href="#linearGradient3"
       id="radialGradient4"
       cx="256"
       cy="256"
       fx="256"
       fy="256"
       r="181.01933"
       gradientUnits="userSpaceOnUse"
       gradientTransform="matrix(0.921875,0,0,0.921875,20,20)" />
  </defs>
  <g
     inkscape:label="Layer 1"
     inkscape:groupmode="layer"
     id="layer1">
    <path
       id="Background"
       style="stroke-width:7.55906"
       d="m 0,0 c 170.66667,0 341.33333,0 512,0 0,170.66667 0,341.33333 0,512 -170.66667,0 -341.33333,0 -512,0 C 0,341.33333 0,170.66667 0,0 Z" />
    <path
       id="GradientBG"
       style="fill:url(#radialGradient4);stroke-width:6.96851"
       inkscape:label="GradientBG"
       d="M 422.8772,256 C 431.76512,411.5459 205.23637,485.15269 120.99597,354.09134 22.374889,233.47873 162.37068,40.775816 307.55993,97.287767 375.01525,118.13477 423.89197,185.40402 422.8772,256 Z" />
    <path
       id="OriginalStar"
       style="fill:none;stroke-width:0.378321"
       inkscape:label="OriginalStar"
       d="m 158.86935,87.355667 c -1.58242,2.221876 -1.58237,-2.221856 0,0 z" />
    <path
       id="Stars"
       style="fill:#b3b3b3;fill-opacity:1;stroke-width:0.113625"
       d="m -85.162109,-235.37891 c -2.747968,1.67986 2.586077,1.80412 0,0 z m 10.203125,47.6875 c -2.476436,2.35627 2.678685,1.14531 0,0 z m 107.353515,6.44727 c -2.889247,2.81476 2.868847,1.05094 0,0 z m 40.72461,9.13476 c -1.625123,1.45457 1.589344,0.79099 0,0 z m 45.945309,5.81055 c -1.91967,1.43186 1.88261,0.9905 0,0 z m -159.792966,10.84961 c -2.234819,1.80334 2.147542,0.98462 0,0 z m 59.677735,13.22266 c -1.156699,0.86274 1.134341,0.59671 0,0 z m 14.5,2.76172 c -3.470906,2.37456 3.556201,2.40164 0,0 z m 9.597656,10.77734 c -1.746478,1.25845 1.730335,1.12973 0,0 z m 558.652345,7.93359 c -1.76571,1.25752 1.76571,1.25752 0,0 z m -772.0957,9.92188 c -0.76828,0.50063 0.77964,0.38924 0,0 z m 579.58789,19.736327 c -3.05557,1.698141 2.9716,2.170209 0,0 z m -451.228519,0.960937 c -2.424334,1.726581 2.424332,1.726586 0,0 z m 157.535159,0.3125 c -2.18962,1.605471 2.09501,1.216985 0,0 z m 61.47265,1.94336 c -1.55762,1.16181 1.52754,0.803788 0,0 z m -84.242184,2.677734 c -2.798813,2.424902 2.832687,1.546455 0,0 z m -158.080078,2.09961 c -2.842619,2.04294 2.816287,1.832534 0,0 z m -22.9375,0.783203 c -2.871941,2.099622 2.716012,1.360916 0,0 z m 199.869142,0.279297 c -2.897,2.132116 2.91264,1.695945 0,0 z M 99.25,-80.728516 c -0.561645,0.586506 0.663453,0.224214 0,0 z m 18.72461,10.884766 c -3.75596,2.687227 3.78605,2.205569 0,0 z m -152.796876,3.630859 c -1.313474,1.209061 1.334138,0.552265 0,0 z m -135.250004,1.1875 c -2.33473,1.805502 2.30098,1.252189 0,0 z m 405.76563,1.667969 c -3.38556,2.42951 3.37535,1.921395 0,0 z M 77.152344,-60.9375 c -0.539989,0.485722 0.645514,0.306534 0,0 z m 86.251956,5.755859 c -2.44785,1.694193 2.57598,1.394456 0,0 z m 200.4707,3.66211 c -3.18764,2.320167 3.12091,1.743966 0,0 z m -246.15625,4.601562 c -1.19555,0.776508 1.19647,0.744182 0,0 z m -284.98242,20.771485 c -2.64057,2.021638 2.61952,1.428787 0,0 z m 513.4375,13.632812 c -2.08101,1.77514 2.13516,1.017515 0,0 z m 9.35351,9.0878908 c -2.83522,2.60464233 2.8752,1.1932138 0,0 z M 167.45898,1.1132812 c -1.38278,1.2376997 1.35235,0.672997 0,0 z m 459.40235,3.5996094 c -2.63742,1.3087685 2.53928,2.0985203 0,0 z M 25.4375,6.0078125 c -1.6201,0.7798379 1.588234,1.2471312 0,0 z m 148.54297,7.5117185 c -3.98324,2.843015 3.93532,2.037808 0,0 z M 51.523438,14.966797 c -1.900207,1.620909 1.949899,0.928851 0,0 z m -80.134766,7.96875 c -3.141894,2.945106 3.395191,1.528103 0,0 z m -17.71875,4.503906 c -1.298351,0.968397 1.273257,0.669774 0,0 z m 92.210937,1.908203 c -0.473504,0.547568 0.544196,0.126982 0,0 z m 130.095701,1.982422 c -0.84076,0.70994 0.87238,0.44839 0,0 z m 158.97852,0.173828 c -3.31625,2.367429 3.27649,1.697517 0,0 z m -17.125,0.121094 c -2.70108,2.162682 2.67784,1.365133 0,0 z m 133.11914,1.060547 c -2.95442,2.463002 3.04446,1.45224 0,0 z m -89.79883,0.316406 c -3.0362,2.957446 3.01448,1.104811 0,0 z m -526.21484,2.308594 c -2.19537,1.964939 2.14702,1.068524 0,0 z m 740.99218,3.847656 c -0.80901,0.792296 0.80656,0.29286 0,0 z m -17.29492,0.552735 c -1.96428,1.750337 1.88916,0.815974 0,0 z m -84.23633,6.923828 c -2.43234,1.709381 2.41904,1.541203 0,0 z m 62.72657,4.660156 c -2.25951,2.022385 2.20976,1.099724 0,0 z m -372.95313,18.84375 c -1.17652,1.122856 1.27461,0.544439 0,0 z m -230.355467,1.123047 c -2.446123,1.478681 2.51029,1.478097 0,0 z M 317.16016,83.904297 c -1.29286,0.86809 1.26113,0.781028 0,0 z m 50.22265,3.628906 c -1.28809,0.919512 1.29571,0.756287 0,0 z m 85.58399,0.867188 c -0.82415,0.577761 0.81452,0.445911 0,0 z m -330.01563,3.259765 c -3.89958,2.66762 3.99492,2.698554 0,0 z m -50.978514,5.050782 c -0.48965,0.34239 0.51837,0.277878 0,0 z m -145.330078,2.033203 c -0.78705,0.587021 0.77183,0.405898 0,0 z m 403.455082,0.101562 c -3.67081,3.285567 3.58999,1.786617 0,0 z m -350.201176,1.861327 c -2.328555,1.73685 2.283586,1.20162 0,0 z m 81.572266,0.46094 c -2.525686,1.12772 2.568626,2.14143 0,0 z m 136.36328,12.25586 c -0.71755,0.61304 0.73883,0.34829 0,0 z m 11.11133,0.15625 c -1.00742,0.75138 0.98794,0.51955 0,0 z m 231.06641,2.31836 c -1.73919,1.55662 1.70088,0.84649 0,0 z M 159.5957,127.29688 c -0.78917,0.55957 0.78033,0.40266 0,0 z m -90.886716,0.89453 c -1.101681,1.05262 1.194293,0.50949 0,0 z m 352.265626,7.57031 c -4.40582,3.28622 4.32071,2.27328 0,0 z m -135.26563,2.19922 c -3.28266,2.40477 3.25342,2.08746 0,0 z M 6.8515625,138.57031 c -2.8594052,2.03653 2.8250254,1.45937 0,0 z m 74.2460935,1.62696 c -3.568235,2.61441 3.536784,2.2691 0,0 z m -42.099609,2.78125 c -0.687,0.50365 0.639782,0.35218 0,0 z m 229.242183,2.72851 c -2.25557,1.61251 2.27201,1.32442 0,0 z m -57.04882,7.00781 c -3.64702,2.55775 3.62701,2.30614 0,0 z m -256.78516,6.35352 c -3.77423,2.65195 3.753652,2.39129 0,0 z m 322.12109,1.4707 c -1.96888,1.40226 1.96889,1.40221 0,0 z M 48.748047,164.0332 c -2.056335,1.01061 2.068334,1.73118 0,0 z m -28.375,3.17188 c -3.308894,1.32167 3.190769,2.99024 0,0 z m 311.650393,1.52734 c -3.17194,2.27694 3.16247,1.79993 0,0 z m -181.54297,6.04883 c -1.02878,0.7338 1.03404,0.60406 0,0 z m 44,2.06445 c -4.09711,3.27851 4.02463,2.25448 0,0 z m -108.187501,7.45313 c -2.163799,1.75981 2.228931,1.21066 0,0 z m 454.251951,1.5625 c -3.39447,1.35658 3.27358,3.06727 0,0 z m 45.34766,0.23828 c -1.82643,1.11416 1.71756,1.19914 0,0 z m -248.64844,1.65625 c -1.41893,0.97137 1.40293,0.92132 0,0 z m -106.1875,0.12305 c -2.9189,2.17714 2.86251,1.50603 0,0 z m -97.99219,2.67578 c -1.13573,0.82921 1.12268,0.72164 0,0 z m 265.87305,1.33398 c -0.66508,0.31243 0.65684,0.53289 0,0 z m -166.7168,0.33203 c -2.08748,1.51548 2.04371,1.13896 0,0 z m -163.693356,3.54297 c -1.417567,1.04475 1.324102,0.72394 0,0 z m -20.462891,0.83594 c -1.792868,1.37185 1.777157,0.97106 0,0 z m 81.351567,0.14844 c -1.91286,1.36227 1.91284,1.36232 0,0 z m -144.494145,4.58007 c -1.385535,1.12808 1.428995,0.77488 0,0 z m 530.968745,3.66797 c -2.38699,1.9825 2.36441,1.21916 0,0 z m 50.53321,0.99024 c -2.68105,1.71344 2.54736,1.41669 0,0 z m -275.45117,1.42383 c -0.83391,0.32795 0.80107,0.75296 0,0 z m 84.04101,0.41211 c -3.63719,2.35345 3.63913,2.25352 0,0 z m -263.86719,5.70703 c -2.73206,1.91994 2.71713,1.73108 0,0 z m -17.431636,3.58398 c -3.918996,3.34135 4.017204,1.91986 0,0 z m 263.333986,8.06445 c -1.60449,1.23441 1.59006,0.83649 0,0 z m -336.097658,6.94336 c -3.223103,2.29546 3.223102,2.29547 0,0 z m 32.083984,3.18555 c -2.42157,1.62595 2.362141,1.46288 0,0 z m 103.509764,1.05274 c -3.49916,2.46104 3.47117,1.87373 0,0 z m 328.18164,5.15039 c -0.87484,0.6934 0.85806,0.50486 0,0 z m -447.585935,3.89648 c -1.449966,1.01939 1.441931,0.91891 0,0 z m 258.662105,1.48828 c -3.61363,2.8963 3.54991,1.99265 0,0 z m 168.58008,6.5918 c -3.15734,2.20607 3.01327,1.60091 0,0 z m -50.75,6.73828 c -0.77768,0.4701 0.72902,0.51076 0,0 z m -139.19726,0.30078 c -2.74664,1.9561 2.74662,1.95615 0,0 z m 233.34765,4.69336 c -4.29385,3.05991 4.24176,2.19152 0,0 z m -280.26172,7.6543 c -0.65014,0.39206 0.60894,0.42691 0,0 z m -96.85351,1.22656 c -1.83039,1.40062 1.81445,0.99131 0,0 z m 32.03515,0.34766 c -1.62514,1.4546 1.58937,0.79095 0,0 z m -102.412104,6.48046 c -0.67714,0.60609 0.662228,0.32958 0,0 z m 417.464844,8.84961 c -2.00474,0.79856 1.93173,1.81107 0,0 z m -529.828126,2.5 c -4.261847,2.60852 4.012545,2.79826 0,0 z m 9.558594,6.40235 c -2.681052,1.97631 2.642139,1.54883 0,0 z m 169.615232,0.32226 c -4.14181,2.53509 3.89954,2.71933 0,0 z m 246.91602,0.79102 c -1.21172,1.08455 1.18504,0.58976 0,0 z m -267.20117,3.41015 c -0.85003,0.55314 0.88284,0.49544 0,0 z m 307.28906,1.27149 c -1.01376,0.97075 1.05216,0.45533 0,0 z m -200.27735,3.8457 c -3.60845,2.56994 3.60847,2.56989 0,0 z m -102.13476,3.98047 c -3.91735,2.70756 3.76847,1.93784 0,0 z m 15.1543,20.72852 c -1.14865,0.85673 1.12643,0.59269 0,0 z m -41.611332,4.81836 c -0.769815,0.68903 0.752859,0.37465 0,0 z m 500.906252,4.52148 c -3.95167,3.18487 3.81915,1.74812 0,0 z m -329.41602,5.55469 c -3.00162,2.5026 3.09321,1.47522 0,0 z m -205.197263,1.24023 c -3.071627,2.40127 3.020033,1.61721 0,0 z m 527.615233,2.67578 c -0.71336,0.50789 0.71579,0.41884 0,0 z m 40.375,3.18946 c -1.54127,1.10975 1.53887,0.87299 0,0 z m -499.41992,0.2832 c -3.49637,2.49007 3.49637,2.49007 0,0 z m -43.710938,2.29102 c -1.585064,1.51264 1.642348,0.71247 0,0 z m -41.636719,1.23242 c -1.338298,0.95311 1.338298,0.95311 0,0 z M 4.8144531,370.25 c -1.5449346,1.05953 1.5844891,1.06642 0,0 z M 198.61719,374 c -1.93876,1.73529 1.89607,0.94361 0,0 z m -145.527346,1.15625 c -3.382522,1.63982 3.37465,2.12639 0,0 z m -184.033204,3.08203 c -3.23519,3.07636 3.49835,1.49597 0,0 z m 250.96484,6.06836 c -3.30226,2.32037 3.28428,2.09227 0,0 z m 624.03321,7.26172 c -3.71658,2.85945 3.722,2.22345 0,0 z m -652.970706,0.0977 c -3.406728,2.90458 3.492459,1.66852 0,0 z m -55.640625,5.36718 c -0.640093,0.31474 0.613033,0.5087 0,0 z m 328.177731,3.56836 c -0.85741,0.62982 0.79937,0.4387 0,0 z m -425.443356,1.91992 c -0.561037,0.40483 0.555826,0.36407 0,0 z m 489.412106,4.36329 c -2.37877,1.69346 2.35036,1.21394 0,0 z m -280.44726,4.24414 c -2.90825,2.58553 2.79087,1.41772 0,0 z m 51.11328,3.64453 c -2.4881,1.78879 2.36279,1.47904 0,0 z m -299.07422,1.23242 c -2.36125,1.74355 2.207943,1.20382 0,0 z m 604.45898,0.19336 c -2.62682,1.87056 2.59534,1.34058 0,0 z m -347.41015,0.68164 c -3.8419,2.94234 3.81337,2.07684 0,0 z m -65.583986,1.14648 c -1.824715,1.63322 1.784536,0.88811 0,0 z m -92.505859,3.70704 c -1.5324749,1.37164 1.4987312,0.74587 0,0 z m -46.615234,6.74023 c -2.066989,1.47208 2.066987,1.47208 0,0 z m 211.796879,0.0645 c -1.15738,0.80416 1.12111,0.56096 0,0 z m -125.242192,7.41602 c -2.466374,1.75652 2.466374,1.75652 0,0 z m -11.263672,3.25976 c -3.691775,2.58924 3.671536,2.33451 0,0 z m 21.421875,4.08594 c -2.363887,0.94277 2.278506,2.13571 0,0 z m -108.111328,2.03516 c -2.043918,1.99288 2.030801,0.74292 0,0 z m 159.345703,4.72656 c -2.166854,1.93945 2.119144,1.05462 0,0 z m 239.585934,2.33203 c -2.40767,1.79584 2.36117,1.24213 0,0 z M 90.988281,465.91211 c -1.77482,1.58857 1.73574,0.86383 0,0 z m -30.753906,4.51562 c -1.668609,1.53501 1.693871,0.70143 0,0 z m 229.417965,2.18946 c -2.5805,2.51463 2.56278,0.93839 0,0 z m 27.67774,0.875 c -3.04409,2.37975 2.99293,1.60274 0,0 z m 140.93164,0.13867 c -2.6658,2.38603 2.6071,1.29747 0,0 z m -16.8711,2.23242 c -2.69645,1.92049 2.66405,1.37626 0,0 z M -47.533203,488.0918 c -2.726822,1.87022 2.795407,1.8859 0,0 z m 494.582033,1.07031 c -2.50842,1.78647 2.50842,1.78647 0,0 z m -581.00781,0.36523 c -1.47505,1.40623 1.59713,0.68237 0,0 z m 432.73242,2.33789 c -2.3724,2.18028 2.40653,0.99809 0,0 z m 234.52148,4.4043 c -3.0696,2.15218 3.05272,1.94035 0,0 z m -135.92187,13.04883 c -1.32576,1.18663 1.29657,0.64526 0,0 z m -81.95899,5.73047 c -2.26848,1.63428 2.24755,1.4669 0,0 z m -244.423826,3.12695 c -2.824289,2.10659 2.769739,1.45735 0,0 z m -82.294922,1.54492 c -1.403008,1.19704 1.4406121,0.6849 0,0 z m 709.070308,0.42969 c -3.04344,2.96417 3.02159,1.10799 0,0 z m -469.5332,14.11719 c -3.8696,3.14917 3.85833,1.80622 0,0 z m -7.32031,4.08984 c -1.21157,0.90369 1.18817,0.62515 0,0 z m -286.003907,0.21289 c -4.262032,2.98968 4.23874,2.6957 0,0 z m 591.187497,7.00196 c -3.0372,2.37438 2.98619,1.59911 0,0 z m -125.45117,4.60156 c -2.52467,1.86787 2.4638,1.23461 0,0 z m -287.06445,1.88867 c -0.55711,0.38613 0.52885,0.28437 0,0 z m 404.68164,5.42969 c -2.64854,1.88626 2.64854,1.88626 0,0 z M 45.408203,574.22461 c -0.708068,0.57805 0.732592,0.39566 0,0 z m 372.271487,0.80469 c -1.98941,1.38502 1.9297,0.96275 0,0 z m 181.39843,1.27734 c -0.62358,0.44415 0.6236,0.4441 0,0 z m -443.82421,4.08594 c -3.72786,3.33661 3.64575,1.81439 0,0 z m -69.343754,1.91797 c -0.847445,0.67181 0.831122,0.48925 0,0 z m 350.949224,26.17968 c -2.65169,2.14071 2.5487,1.16724 0,0 z m 121.64257,37.92579 c -4.17704,3.11561 4.09639,2.15564 0,0 z m -121.95312,0.18164 c -2.13729,1.03548 2.13091,1.34359 0,0 z m 45.63672,7.58398 c -0.71487,0.35265 0.68549,0.56903 0,0 z m -12.60157,3.83594 c -2.15808,1.53698 2.15809,1.53693 0,0 z m -89.0996,2.38086 c -1.09938,0.543 1.10567,0.92995 0,0 z m -21.5879,0.25586 c -0.97551,0.72764 0.9567,0.50336 0,0 z m -101.51562,9.35156 c -2.09027,1.35188 2.09136,1.2942 0,0 z m 185.91406,16.85352 c -1.2974,0.95369 1.30442,0.75831 0,0 z"
       inkscape:spray-origin="#path6"
       inkscape:label="Stars" />
    <path
       id="Letters"
       style="font-size:74.6667px;line-height:0.65;font-family:'The Wild Breath of Zelda';-inkscape-font-specification:'The Wild Breath of Zelda';white-space:pre;fill:#85ffe1;stroke-width:7.55906"
       d="M 78.910082 174.51172 C 78.132305 174.51172 76.64956 175.08273 74.462061 176.22508 L 74.462061 177.06339 C 76.771088 177.06339 78.253832 180.46609 78.910082 187.27164 C 78.253832 191.01469 77.925546 196.67806 77.925546 204.2614 L 77.925546 206.37593 C 77.925546 207.25093 78.582119 209.23155 79.894618 212.31836 L 79.894618 212.75627 L 79.420724 212.75627 L 78.39944 212.31836 L 77.925546 217.42325 L 77.925546 220.81324 L 72.493755 225.91736 L 72.493755 226.31853 L 73.477525 226.31853 C 77.585162 226.31853 81.365146 226.46477 84.816533 226.75644 C 89.677642 226.75644 94.781682 225.7599 100.1289 223.76685 C 100.51779 223.76685 102.00053 221.9317 104.57692 218.26156 C 108.75747 218.26156 111.39468 212.31891 112.48843 200.4335 C 112.48843 199.97169 112.31807 198.27034 111.97779 195.32937 C 109.66876 190.12799 108.5143 186.87077 108.5143 185.55827 C 104.67403 178.19369 97.443111 174.51172 86.821588 174.51172 L 78.910082 174.51172 z M 112.85285 177.45231 L 112.48843 179.45736 L 112.48843 191.45247 L 112.85285 191.45247 C 115.89105 185.71635 117.84755 182.48404 118.72255 181.75487 L 122.40499 181.75487 C 122.40499 183.65071 122.76984 186.31201 123.499 189.73911 C 122.76984 194.18703 122.40499 197.99035 122.40499 201.15008 L 122.40499 201.44176 C 122.40499 202.97302 122.52635 204.78404 122.76941 206.87432 C 122.52635 207.2146 122.40499 207.59112 122.40499 208.00432 C 122.40499 208.97654 120.9347 210.3138 117.99372 212.01519 L 117.99372 212.30688 L 136.36841 212.30688 L 136.36841 211.72351 C 132.94131 210.14364 131.2283 208.5271 131.2283 206.87432 C 131.2283 205.82918 131.34966 204.01816 131.59272 201.44176 C 131.59272 201.00426 131.47136 200.62774 131.2283 200.31177 C 131.47136 198.68329 131.59272 197.3468 131.59272 196.30166 L 131.59272 181.75487 L 135.63957 181.75487 C 136.87916 184.40418 138.10674 185.72823 139.32202 185.72823 L 139.32202 186.89498 C 139.32202 187.69706 139.92958 189.21636 141.14486 191.45247 L 141.91044 191.45247 L 141.91044 179.16568 L 141.54603 178.61905 C 141.13283 178.61905 140.8769 178.80109 140.77968 179.16568 L 138.95683 177.45231 L 130.86312 177.45231 C 127.21728 177.45231 122.32019 177.54955 116.17087 177.744 C 115.24726 177.54955 114.14105 177.45231 112.85285 177.45231 z M 88.79066 181.29246 L 91.743503 181.73037 C 96.50739 181.73037 99.472882 186.54269 100.63954 196.16768 L 100.63954 197.88105 L 101.11344 198.72013 C 100.79747 198.72013 100.63954 198.86561 100.63954 199.15727 L 100.63954 204.2614 C 99.181216 214.44542 95.55915 219.53778 89.774431 219.53778 L 89.264554 219.53778 L 89.264554 182.16752 L 88.79066 181.29246 z M 143.42706 198.47667 C 142.7465 198.47667 141.47069 198.9022 139.59916 199.75289 C 139.59916 200.45775 140.74117 201.74601 143.02589 203.61754 L 143.02589 204.01871 L 134.45828 237.81525 C 133.46176 243.16247 131.04316 247.14861 127.20288 249.77361 L 127.20288 250.61192 L 131.46869 250.61192 C 132.65967 250.61192 133.80244 250.75816 134.8962 251.04983 C 135.98994 250.75816 137.13196 250.61192 138.32293 250.61192 L 142.58875 250.61192 L 142.58875 249.77361 C 140.66861 247.48888 139.52583 246.34687 139.16124 246.34687 C 139.16124 245.37465 140.02474 241.53398 141.75044 234.82565 L 150.71921 234.82565 C 151.27823 238.81176 151.98305 240.80484 152.83374 240.80484 C 152.83374 241.36386 152.55369 241.64391 151.99466 241.64391 C 152.55369 243.29669 152.83374 244.71799 152.83374 245.90896 C 150.84069 248.48535 149.5641 249.77361 149.00507 249.77361 L 149.00507 250.61192 L 151.55752 250.61192 C 152.21377 250.61192 152.78478 250.75816 153.27089 251.04983 C 153.78131 250.75816 154.35231 250.61192 154.98426 250.61192 L 160.96344 250.61192 C 162.20302 250.61192 163.3458 250.33263 164.39094 249.77361 C 164.39094 250.33263 165.95848 250.75816 169.0939 251.04983 C 169.65292 251.04983 169.93221 250.77055 169.93221 250.21152 C 169.93221 249.94416 168.36467 248.50966 165.22925 245.90896 C 164.37856 245.90896 163.24821 241.92281 161.83849 233.9506 C 159.84544 231.39851 158.8489 229.55169 158.8489 228.40933 L 158.8489 226.69596 L 159.25007 225.8209 C 158.98271 225.8209 158.8489 225.6871 158.8489 225.41974 L 158.8489 224.54468 L 159.25007 223.70637 C 157.84035 218.40776 155.84728 209.9975 153.27089 198.47667 L 143.42706 198.47667 z M 146.45339 216.01305 L 146.85456 216.01305 L 149.00507 227.53427 L 145.57834 229.68555 C 145.57834 228.54319 145.00733 227.97142 143.86497 227.97142 C 143.86497 226.586 144.7277 222.59985 146.45339 216.01305 z M 115.33256 216.08655 L 112.16 216.74265 C 105.20861 216.74265 100.77282 222.23566 98.852681 233.22176 C 100.11657 245.10718 104.55236 251.04983 112.16 251.04983 L 112.67064 251.04983 C 113.47272 251.04983 114.18997 250.83123 114.82192 250.39373 C 115.42955 250.83123 116.13436 251.04983 116.93645 251.04983 L 118.54034 251.04983 C 120.07159 251.04983 121.49366 250.60018 122.80615 249.70088 C 124.3131 250.60018 125.37031 251.04983 125.97795 251.04983 L 126.52458 251.04983 L 126.52458 234.53397 L 129.1865 233.22176 C 129.1865 232.4926 128.8341 232.05463 128.12923 231.90879 L 114.82192 231.90879 L 114.82192 232.56566 C 117.27678 233.63511 118.50436 234.74056 118.50436 235.88292 L 118.50436 243.13832 C 118.50436 245.56888 117.44714 246.78402 115.33256 246.78402 C 112.34298 246.78402 109.97261 244.02545 108.22262 238.5081 C 108.22262 226.52546 110.42261 220.5338 114.82192 220.5338 C 118.00594 220.5338 121.90652 223.45106 126.52458 229.28439 L 126.52458 216.74265 C 125.45513 216.74265 124.21588 217.17986 122.80615 218.05486 C 118.82004 216.74236 116.32909 216.08655 115.33256 216.08655 z "
       transform="matrix(2.5511697,0,0,2.5511697,-51.22512,-285.38283)"
       inkscape:label="Letters" />
  </g>
</svg>
